# xmcd
#
# Track frame offsets:
#	150
#	13069
#	35576
#	50688
#	66911
#	104602
#	121949
#	142562
#	153016
#	174453
#	190084
#	208098
#	230041
#	248410
#	260616
#
# Disc length: 3585 seconds
#
# Revision: 1
# Processed by: cddbd v1.5.2PL0 Copyright (c) Steve Scherf et al.
# Submitted via: audiograbber 1.83.01
#
DISCID=cb0dff0f
DTITLE=Orquestra Popular da Bomba do Hemetério  - Jorrando Cultura ao Vivo
DYEAR=2009
DGENRE=Country
TTITLE0=FREVANDO EM PARIS
TTITLE1=LUANDA D AGORA
TTITLE2=FREVANDO EM BOMBA DO HEMETERIO
TTITLE3=TANAJURA
TTITLE4=A PAZ EM VOCE
TTITLE5=DADINHA NO PASSO
TTITLE6=SUBURBANO
TTITLE7=BOLADA NAS COSTAS
TTITLE8=FABTASIA - ELEFANTE
TTITLE9=MARACATUSAMBAR
TTITLE10=CABELO DE FOGO
TTITLE11=SUITE AMERICA
TTITLE12=EU CONTO ESSE COCO
TTITLE13=RURAL
TTITLE14=VULCAO TRICOLOR (BONUS)
EXTD=
EXTT0=
EXTT1=
EXTT2=
EXTT3=
EXTT4=
EXTT5=
EXTT6=
EXTT7=
EXTT8=
EXTT9=
EXTT10=
EXTT11=
EXTT12=
EXTT13=
EXTT14=
PLAYORDER=
